<svg width="134" height="29" viewBox="0 0 134 29" fill="none" xmlns="http://www.w3.org/2000/svg">
<g filter="url(#filter0_d_1_3)">
<path d="M3.21555 1.63636H6.91619L8.78764 9.29119H8.93253L13.3395 1.63636H17.0401L14.9876 14H12.0778L13.3395 6.40554H13.2369L9.02308 13.9215H7.16974L5.45526 6.36328H5.35263L4.0728 14H1.163L3.21555 1.63636ZM17.5315 14L19.0769 4.72727H22.029L20.4835 14H17.5315ZM20.7612 3.64062C20.3427 3.64062 20.0026 3.50178 19.741 3.22408C19.4794 2.94638 19.3768 2.61435 19.4331 2.22798C19.4895 1.83759 19.6867 1.50556 20.0247 1.23189C20.3628 0.958215 20.7391 0.821378 21.1536 0.821378C21.5722 0.821378 21.9082 0.958215 22.1618 1.23189C22.4194 1.50556 22.52 1.83759 22.4636 2.22798C22.4154 2.61435 22.2222 2.94638 21.8841 3.22408C21.5501 3.50178 21.1758 3.64062 20.7612 3.64062ZM25.6324 14.157C25.0448 14.157 24.5377 14.0584 24.1111 13.8612C23.6885 13.6599 23.3786 13.3561 23.1814 12.9496C22.9882 12.5431 22.9419 12.036 23.0425 11.4283C23.1311 10.9131 23.2941 10.4805 23.5315 10.1303C23.773 9.77616 24.0688 9.4884 24.4189 9.26705C24.7731 9.04569 25.1675 8.87666 25.6022 8.75994C26.0368 8.64323 26.4916 8.56475 26.9665 8.5245C27.4978 8.47621 27.9284 8.42389 28.2584 8.36754C28.5925 8.3112 28.842 8.23272 29.007 8.1321C29.172 8.02746 29.2726 7.88258 29.3089 7.69744V7.66726C29.3572 7.35736 29.2908 7.1179 29.1096 6.94886C28.9285 6.77983 28.6569 6.69531 28.2947 6.69531C27.9083 6.69531 27.5783 6.77983 27.3046 6.94886C27.0309 7.1179 26.8398 7.35133 26.7311 7.64915L24.0265 7.55256C24.1956 6.98911 24.4854 6.48603 24.8959 6.04332C25.3064 5.59659 25.8276 5.24645 26.4594 4.9929C27.0953 4.73532 27.8298 4.60653 28.6629 4.60653C29.2505 4.60653 29.7818 4.67696 30.2567 4.81783C30.7316 4.95466 31.132 5.15589 31.458 5.42152C31.788 5.68312 32.0235 6.00509 32.1643 6.38743C32.3052 6.76977 32.3354 7.20644 32.2549 7.69744L31.1984 14H28.4214L28.6388 12.7081H28.5663C28.349 13.022 28.0934 13.2876 27.7996 13.505C27.5099 13.7223 27.1839 13.8853 26.8216 13.994C26.4594 14.1026 26.063 14.157 25.6324 14.157ZM26.876 12.2251C27.1859 12.2251 27.4797 12.1607 27.7574 12.032C28.0351 11.9032 28.2685 11.7261 28.4577 11.5007C28.6508 11.2713 28.7736 11.0057 28.8259 10.7038L28.9648 9.82244C28.8802 9.86671 28.7736 9.90696 28.6448 9.94318C28.516 9.9794 28.3792 10.0136 28.2343 10.0458C28.0894 10.074 27.9405 10.1022 27.7876 10.1303C27.6386 10.1545 27.4958 10.1766 27.3589 10.1967C27.0692 10.241 26.8176 10.3094 26.6043 10.402C26.391 10.4946 26.22 10.6153 26.0912 10.7642C25.9664 10.9091 25.8899 11.0821 25.8618 11.2834C25.8135 11.5852 25.8839 11.8187 26.0731 11.9837C26.2622 12.1446 26.5299 12.2251 26.876 12.2251ZM37.535 8.71165L36.6536 14H33.7016L35.7541 1.63636H38.6096L37.8248 6.42969H37.9274C38.2253 5.85819 38.6398 5.41146 39.171 5.08949C39.7023 4.76752 40.3181 4.60653 41.0183 4.60653C41.6623 4.60653 42.2016 4.75142 42.6362 5.04119C43.0709 5.32694 43.3788 5.73142 43.5599 6.25462C43.741 6.77782 43.7732 7.38956 43.6565 8.08984L42.6664 14H39.7144L40.6078 8.66939C40.6883 8.15424 40.6219 7.75178 40.4086 7.462C40.1953 7.17223 39.8532 7.02734 39.3823 7.02734C39.0724 7.02734 38.7867 7.09576 38.5251 7.2326C38.2675 7.36541 38.0522 7.55658 37.8791 7.80611C37.7061 8.05563 37.5914 8.35748 37.535 8.71165Z" fill="black"/>
<path d="M57.6917 6.11577H54.7094C54.7255 5.80185 54.6954 5.52214 54.6189 5.27663C54.5424 5.02711 54.4217 4.8138 54.2567 4.63672C54.0917 4.45561 53.8864 4.31877 53.6409 4.22621C53.3954 4.13364 53.1096 4.08736 52.7837 4.08736C52.1598 4.08736 51.5944 4.24231 51.0873 4.5522C50.5802 4.8621 50.1556 5.30883 49.8135 5.8924C49.4714 6.47597 49.2319 7.17625 49.0951 7.99325C48.9703 8.78208 48.9723 9.4401 49.1011 9.96733C49.2339 10.4946 49.4794 10.891 49.8376 11.1566C50.1958 11.4182 50.6506 11.549 51.202 11.549C51.5602 11.549 51.8922 11.5067 52.1981 11.4222C52.508 11.3337 52.7877 11.2069 53.0372 11.0419C53.2867 10.8769 53.5021 10.6777 53.6832 10.4442C53.8683 10.2068 54.0112 9.94318 54.1118 9.65341H57.1182C56.9693 10.1967 56.7238 10.738 56.3817 11.2773C56.0436 11.8126 55.617 12.2976 55.1018 12.7322C54.5867 13.1669 53.989 13.515 53.3089 13.7766C52.6287 14.0382 51.8721 14.169 51.039 14.169C49.9 14.169 48.918 13.9135 48.093 13.4023C47.2719 12.8912 46.6783 12.1507 46.3121 11.1808C45.9498 10.2068 45.8814 9.02758 46.1068 7.64311C46.3282 6.30291 46.7648 5.17401 47.4168 4.25639C48.0728 3.33878 48.8697 2.64453 49.8074 2.17365C50.7492 1.70277 51.7534 1.46733 52.8199 1.46733C53.5926 1.46733 54.2869 1.57197 54.9026 1.78125C55.5224 1.98651 56.0476 2.28835 56.4783 2.68679C56.9089 3.0812 57.2288 3.56617 57.4381 4.14169C57.6514 4.71721 57.736 5.37524 57.6917 6.11577ZM63.1061 14.1751C62.1282 14.1751 61.3212 13.9738 60.6853 13.5714C60.0535 13.1689 59.6087 12.6075 59.3512 11.8871C59.0936 11.1667 59.0433 10.3295 59.2003 9.37571C59.3572 8.4259 59.6812 7.5928 60.1722 6.87642C60.6632 6.16004 61.291 5.60263 62.0557 5.20419C62.8204 4.80575 63.6877 4.60653 64.6576 4.60653C65.6316 4.60653 66.4345 4.80776 67.0664 5.21023C67.7023 5.61269 68.149 6.17412 68.4066 6.89453C68.6682 7.61494 68.7205 8.45407 68.5635 9.41193C68.4066 10.3617 68.0806 11.1948 67.5855 11.9112C67.0905 12.6236 66.4627 13.179 65.702 13.5774C64.9414 13.9759 64.0761 14.1751 63.1061 14.1751ZM63.4382 11.9474C63.8004 11.9474 64.1244 11.8388 64.4101 11.6214C64.6999 11.4041 64.9434 11.1003 65.1406 10.7099C65.3378 10.3195 65.4787 9.86671 65.5632 9.35156C65.6477 8.84446 65.6557 8.39974 65.5873 8.0174C65.5229 7.63104 65.3861 7.3312 65.1768 7.1179C64.9675 6.90057 64.6838 6.7919 64.3256 6.7919C63.9634 6.7919 63.6374 6.90258 63.3476 7.12393C63.0578 7.34126 62.8144 7.64512 62.6172 8.03551C62.424 8.42187 62.2851 8.87464 62.2006 9.39382C62.1161 9.90092 62.106 10.3456 62.1704 10.728C62.2348 11.1103 62.3737 11.4102 62.587 11.6275C62.8003 11.8408 63.084 11.9474 63.4382 11.9474ZM73.3637 14.1328C72.6796 14.1328 72.0859 13.9557 71.5828 13.6016C71.0798 13.2474 70.7196 12.7161 70.5022 12.0078C70.2889 11.2995 70.2688 10.4201 70.4419 9.36967C70.623 8.279 70.9449 7.38151 71.4078 6.6772C71.8706 5.97289 72.4099 5.4517 73.0257 5.11364C73.6455 4.77557 74.2773 4.60653 74.9213 4.60653C75.4082 4.60653 75.8107 4.69105 76.1287 4.86008C76.4506 5.02509 76.7022 5.2384 76.8833 5.5C77.0644 5.7616 77.1891 6.03326 77.2576 6.31499H77.324L78.1027 1.63636H81.0548L79.0022 14H76.0804L76.3279 12.4968H76.2373C76.0643 12.7826 75.8429 13.0502 75.5733 13.2997C75.3036 13.5492 74.9836 13.7505 74.6134 13.9034C74.2471 14.0563 73.8306 14.1328 73.3637 14.1328ZM74.7583 11.8327C75.1165 11.8327 75.4404 11.7321 75.7302 11.5309C76.02 11.3256 76.2635 11.0379 76.4607 10.6676C76.6619 10.2973 76.8028 9.86269 76.8833 9.36364C76.9678 8.85653 76.9718 8.41986 76.8953 8.05362C76.8189 7.68738 76.668 7.40566 76.4426 7.20845C76.2212 7.01124 75.9294 6.91264 75.5672 6.91264C75.205 6.91264 74.881 7.01326 74.5953 7.21449C74.3095 7.41572 74.0721 7.69946 73.8829 8.0657C73.6938 8.43194 73.5569 8.86458 73.4724 9.36364C73.3919 9.86269 73.3839 10.2973 73.4483 10.6676C73.5167 11.0379 73.6595 11.3256 73.8769 11.5309C74.0982 11.7321 74.392 11.8327 74.7583 11.8327ZM85.8701 14.1751C84.9002 14.1751 84.0952 13.9839 83.4553 13.6016C82.8194 13.2152 82.3727 12.6658 82.1151 11.9535C81.8575 11.2371 81.8113 10.3859 81.9763 9.39986C82.1373 8.442 82.4653 7.60488 82.9603 6.88849C83.4593 6.16809 84.0872 5.60866 84.8438 5.21023C85.6004 4.80776 86.4436 4.60653 87.3733 4.60653C88.0333 4.60653 88.6189 4.70916 89.13 4.91442C89.6412 5.11967 90.0637 5.42554 90.3978 5.83203C90.7318 6.23449 90.9592 6.72952 91.08 7.31712C91.2007 7.90471 91.1967 8.57883 91.0679 9.33949L90.9532 10.076H82.8999L83.1716 8.36151H88.4841C88.5324 8.04759 88.5062 7.76787 88.4056 7.52237C88.305 7.27687 88.142 7.0857 87.9166 6.94886C87.6953 6.808 87.4236 6.73757 87.1016 6.73757C86.7756 6.73757 86.4698 6.81404 86.184 6.96697C85.9023 7.11589 85.6628 7.31712 85.4656 7.57067C85.2684 7.82422 85.1396 8.10997 85.0792 8.42791L84.7593 10.1847C84.6949 10.575 84.713 10.9091 84.8136 11.1868C84.9142 11.4645 85.0873 11.6778 85.3328 11.8267C85.5783 11.9716 85.8942 12.044 86.2806 12.044C86.5382 12.044 86.7797 12.0098 87.005 11.9414C87.2304 11.869 87.4316 11.7623 87.6087 11.6214C87.7898 11.4766 87.9367 11.3015 88.0494 11.0962L90.7419 11.1747C90.5246 11.7824 90.1885 12.3117 89.7337 12.7624C89.2789 13.2092 88.7235 13.5573 88.0675 13.8068C87.4155 14.0523 86.6831 14.1751 85.8701 14.1751ZM101.629 7.55859L98.9665 7.63104C98.9706 7.43383 98.9263 7.26077 98.8337 7.11186C98.7412 6.95892 98.6104 6.8402 98.4413 6.75568C98.2723 6.67116 98.0711 6.62891 97.8376 6.62891C97.4593 6.62891 97.1192 6.71342 96.8174 6.88246C96.5196 7.05149 96.3526 7.27083 96.3163 7.54048C96.2882 7.68537 96.3284 7.81214 96.4371 7.92081C96.5457 8.02545 96.7872 8.11802 97.1615 8.19851L98.9001 8.53658C99.7936 8.71366 100.442 9.02154 100.844 9.46023C101.251 9.89489 101.395 10.4704 101.279 11.1868C101.174 11.7985 100.904 12.3278 100.47 12.7745C100.039 13.2212 99.4897 13.5674 98.8217 13.8129C98.1576 14.0543 97.4231 14.1751 96.6182 14.1751C95.2579 14.1751 94.2316 13.9014 93.5393 13.354C92.8511 12.8027 92.5292 12.0722 92.5734 11.1626L95.447 11.0902C95.4591 11.4323 95.5738 11.6899 95.7911 11.8629C96.0125 12.032 96.3123 12.1205 96.6906 12.1286C97.1052 12.1366 97.4634 12.0501 97.7652 11.869C98.067 11.6879 98.2361 11.4645 98.2723 11.1989C98.2964 11.0258 98.2381 10.891 98.0972 10.7944C97.9604 10.6978 97.7048 10.6113 97.3305 10.5348L95.7609 10.2269C94.8594 10.0539 94.2074 9.72786 93.805 9.24893C93.4065 8.76598 93.2697 8.15021 93.3945 7.40163C93.4991 6.80599 93.7446 6.3009 94.131 5.88636C94.5214 5.4678 95.0305 5.14986 95.6583 4.93253C96.2902 4.7152 97.0106 4.60653 97.8195 4.60653C99.1155 4.60653 100.093 4.87015 100.753 5.39737C101.418 5.92057 101.709 6.64098 101.629 7.55859ZM110.252 14L109.896 16.1612H101.649L101.999 14H110.252ZM119.166 14L118.81 16.1612H110.564L110.914 14H119.166ZM122.521 14.1751C122.082 14.1751 121.724 14.0221 121.446 13.7163C121.168 13.4104 121.048 13.0401 121.084 12.6055C121.124 12.1789 121.313 11.8146 121.651 11.5128C121.989 11.2109 122.376 11.06 122.81 11.06C123.225 11.06 123.573 11.2109 123.855 11.5128C124.141 11.8146 124.263 12.1789 124.223 12.6055C124.199 12.8952 124.1 13.1589 123.927 13.3963C123.758 13.6338 123.549 13.8229 123.299 13.9638C123.05 14.1046 122.79 14.1751 122.521 14.1751Z" fill="white"/>
</g>
<defs>
<filter id="filter0_d_1_3" x="0.162994" y="0.821381" width="133.12" height="27.3398" filterUnits="userSpaceOnUse" color-interpolation-filters="sRGB">
<feFlood flood-opacity="0" result="BackgroundImageFix"/>
<feColorMatrix in="SourceAlpha" type="matrix" values="0 0 0 0 0 0 0 0 0 0 0 0 0 0 0 0 0 0 127 0" result="hardAlpha"/>
<feOffset dx="4" dy="7"/>
<feGaussianBlur stdDeviation="2.5"/>
<feComposite in2="hardAlpha" operator="out"/>
<feColorMatrix type="matrix" values="0 0 0 0 0 0 0 0 0 0 0 0 0 0 0 0 0 0 0.21 0"/>
<feBlend mode="normal" in2="BackgroundImageFix" result="effect1_dropShadow_1_3"/>
<feBlend mode="normal" in="SourceGraphic" in2="effect1_dropShadow_1_3" result="shape"/>
</filter>
</defs>
</svg>
